<svg xmlns="http://www.w3.org/2000/svg" width="546.027" height="858.913" viewBox="0 0 546.027 858.913">
  <g id="Groupe_31" data-name="Groupe 31" transform="translate(-620.331 -237.437)">
    <path id="Tracé_26" data-name="Tracé 26" d="M705.17-988l10.984,715.932,489.652-15.991,10.7-715.948Z" transform="translate(-66.656 1250.85)" fill="#fff" stroke="#707070" stroke-width="1"/>
    <g id="Groupe_29" data-name="Groupe 29" transform="translate(868.948 245.992)">
      <path id="Tracé_23" data-name="Tracé 23" d="M825.088,1503.542H863.85l-7.136,659.082H831.9Z" transform="translate(-825.088 -1476.458)" fill="#c3bbc9" stroke="#707070" stroke-width="1"/>
      <path id="Tracé_24" data-name="Tracé 24" d="M844,1496.6l.586,742.268" transform="translate(-824.619 -1496.6)" fill="none" stroke="#707070" stroke-width="1"/>
      <g id="Groupe_30" data-name="Groupe 30" transform="translate(15.203 487.06)">
        <g id="Ellipse_16" data-name="Ellipse 16" transform="translate(0.582 0)" fill="#c5c1c7" stroke="#aaa" stroke-width="1">
          <ellipse cx="5.993" cy="8.99" rx="5.993" ry="8.99" stroke="none"/>
          <ellipse cx="5.993" cy="8.99" rx="5.493" ry="8.49" fill="none"/>
        </g>
        <g id="Ellipse_17" data-name="Ellipse 17" transform="translate(0.582 44.35)" fill="#c5c1c7" stroke="#aaa" stroke-width="1">
          <ellipse cx="5.993" cy="8.99" rx="5.993" ry="8.99" stroke="none"/>
          <ellipse cx="5.993" cy="8.99" rx="5.493" ry="8.49" fill="none"/>
        </g>
        <path id="Tracé_25" data-name="Tracé 25" d="M845.448,1936.1l-4.934,1.981v42.994l6.378,4.6v-4.6l-4.144-5.01,1.136-35.27h4.134Z" transform="translate(-840.514 -1928.787)" fill="#c5c1c7" stroke="#aaa" stroke-width="1"/>
      </g>
    </g>
    <g id="Groupe_25" data-name="Groupe 25" transform="translate(656.992 574.831)">
      <path id="Tracé_2" data-name="Tracé 2" d="M757.711,2107.555s-.881-165.164-2.245-221.282-37.325-69.7-37.325-69.7H677.312l2.677,321.314H836.242l-4.093-321.314h8.029" transform="translate(-645.773 -1788.317)" fill="none" stroke="#707070" stroke-width="1"/>
      <line id="Ligne_3" data-name="Ligne 3" x2="210.961" transform="translate(6.593 319.439)" fill="none" stroke="#707070" stroke-width="1"/>
      <path id="Tracé_3" data-name="Tracé 3" d="M715.175,1817.321v205.934h-26.1v71.962h55.033v-45.438H717.6v17.87h12.722v14.13H703.433v-46.017h34.294s3.256-15.445,17.147-15.846,17.295,15.846,17.295,15.846h34.619v44.277H779.734v-12.39h15.848v-17.87H767.375v45.438H822.8v-75.3H793.884V1817.321" transform="translate(-643.437 -1788.169)" fill="none" stroke="#707070" stroke-width="1"/>
      <path id="Tracé_4" data-name="Tracé 4" d="M782.434,1816.574s-38.351,22.44-38.706,111.34" transform="translate(-632.58 -1788.317)" fill="none" stroke="#707070" stroke-width="1"/>
      <path id="Tracé_5" data-name="Tracé 5" d="M735.321,2031.71h22.4" transform="translate(-634.25 -1745.582)" fill="none" stroke="#707070" stroke-width="1"/>
      <path id="Tracé_6" data-name="Tracé 6" d="M812.684,1816.574H777.173l-1.17.687" transform="translate(-626.169 -1788.317)" fill="none" stroke="#707070" stroke-width="1"/>
      <path id="Tracé_7" data-name="Tracé 7" d="M679.895,2075.081h69.2l8.64-6.206,7.709,6.206H835.1" transform="translate(-645.26 -1738.199)" fill="none" stroke="#707070" stroke-width="1"/>
      <path id="Tracé_8" data-name="Tracé 8" d="M737.67,2074.053l8.849,6.977,8.1-6.977" transform="translate(-633.784 -1737.171)" fill="none" stroke="#707070" stroke-width="1"/>
      <g id="Ellipse_1" data-name="Ellipse 1" transform="translate(37.158 246.921)" fill="#fff" stroke="#707070" stroke-width="1">
        <circle cx="2.397" cy="2.397" r="2.397" stroke="none"/>
        <circle cx="2.397" cy="2.397" r="1.897" fill="none"/>
      </g>
      <g id="Ellipse_2" data-name="Ellipse 2" transform="translate(37.158 294.866)" fill="#fff" stroke="#707070" stroke-width="1">
        <circle cx="2.397" cy="2.397" r="2.397" stroke="none"/>
        <circle cx="2.397" cy="2.397" r="1.897" fill="none"/>
      </g>
      <g id="Ellipse_3" data-name="Ellipse 3" transform="translate(57.535 311.647)" fill="#fff" stroke="#707070" stroke-width="1">
        <circle cx="2.397" cy="2.397" r="2.397" stroke="none"/>
        <circle cx="2.397" cy="2.397" r="1.897" fill="none"/>
      </g>
      <g id="Ellipse_4" data-name="Ellipse 4" transform="translate(86.302 311.647)" fill="#fff" stroke="#707070" stroke-width="1">
        <circle cx="2.397" cy="2.397" r="2.397" stroke="none"/>
        <circle cx="2.397" cy="2.397" r="1.897" fill="none"/>
      </g>
      <g id="Ellipse_5" data-name="Ellipse 5" transform="translate(135.447 311.647)" fill="#fff" stroke="#707070" stroke-width="1">
        <circle cx="2.397" cy="2.397" r="2.397" stroke="none"/>
        <circle cx="2.397" cy="2.397" r="1.897" fill="none"/>
      </g>
      <g id="Ellipse_6" data-name="Ellipse 6" transform="translate(164.214 311.647)" fill="#fff" stroke="#707070" stroke-width="1">
        <circle cx="2.397" cy="2.397" r="2.397" stroke="none"/>
        <circle cx="2.397" cy="2.397" r="1.897" fill="none"/>
      </g>
      <g id="Ellipse_7" data-name="Ellipse 7" transform="translate(182.194 292.469)" fill="#fff" stroke="#707070" stroke-width="1">
        <circle cx="2.397" cy="2.397" r="2.397" stroke="none"/>
        <circle cx="2.397" cy="2.397" r="1.897" fill="none"/>
      </g>
      <g id="Ellipse_8" data-name="Ellipse 8" transform="translate(182.194 246.921)" fill="#fff" stroke="#707070" stroke-width="1">
        <circle cx="2.397" cy="2.397" r="2.397" stroke="none"/>
        <circle cx="2.397" cy="2.397" r="1.897" fill="none"/>
      </g>
      <g id="Ellipse_9" data-name="Ellipse 9" transform="translate(191.783 164.214)" fill="none" stroke="#707070" stroke-width="1">
        <circle cx="14.384" cy="14.384" r="14.384" stroke="none"/>
        <circle cx="14.384" cy="14.384" r="13.884" fill="none"/>
      </g>
      <g id="Ellipse_14" data-name="Ellipse 14" transform="translate(194.18 11.986)" fill="none" stroke="#707070" stroke-width="1">
        <circle cx="14.384" cy="14.384" r="14.384" stroke="none"/>
        <circle cx="14.384" cy="14.384" r="13.884" fill="none"/>
      </g>
      <g id="Ellipse_13" data-name="Ellipse 13" transform="translate(0 11.986)" fill="none" stroke="#707070" stroke-width="1">
        <circle cx="14.384" cy="14.384" r="14.384" stroke="none"/>
        <circle cx="14.384" cy="14.384" r="13.884" fill="none"/>
      </g>
      <g id="Ellipse_15" data-name="Ellipse 15" transform="translate(86.302 0)" fill="none" stroke="#707070" stroke-width="1">
        <circle cx="26.969" cy="26.969" r="26.969" stroke="none"/>
        <circle cx="26.969" cy="26.969" r="26.469" fill="none"/>
      </g>
      <g id="Ellipse_10" data-name="Ellipse 10" transform="translate(2.397 165.413)" fill="none" stroke="#707070" stroke-width="1">
        <circle cx="14.384" cy="14.384" r="14.384" stroke="none"/>
        <circle cx="14.384" cy="14.384" r="13.884" fill="none"/>
      </g>
      <g id="Ellipse_11" data-name="Ellipse 11" transform="translate(4.795 321.237)" fill="none" stroke="#707070" stroke-width="1">
        <circle cx="14.384" cy="14.384" r="14.384" stroke="none"/>
        <circle cx="14.384" cy="14.384" r="13.884" fill="none"/>
      </g>
      <g id="Ellipse_12" data-name="Ellipse 12" transform="translate(191.783 321.237)" fill="none" stroke="#707070" stroke-width="1">
        <circle cx="14.384" cy="14.384" r="14.384" stroke="none"/>
        <circle cx="14.384" cy="14.384" r="13.884" fill="none"/>
      </g>
      <path id="Tracé_9" data-name="Tracé 9" d="M663.005,1827v52.806s.258,7.61,5.606,8.648-5.539,1.914-5.606,10.059,0,54.2,0,54.2" transform="translate(-648.621 -1786.246)" fill="none" stroke="#707070" stroke-width="1"/>
      <path id="Tracé_10" data-name="Tracé 10" d="M670.059,1827v52.806s-.258,7.61-5.606,8.648,5.539,1.914,5.606,10.059,0,54.2,0,54.2" transform="translate(-655.735 -1786.246)" fill="none" stroke="#707070" stroke-width="1"/>
      <path id="Tracé_11" data-name="Tracé 11" d="M663.005,1827v52.806s.258,7.61,5.606,8.648-5.539,1.914-5.606,10.059,0,54.2,0,54.2" transform="translate(-646.194 -1633.87)" fill="none" stroke="#707070" stroke-width="1"/>
      <path id="Tracé_13" data-name="Tracé 13" d="M663.005,1827v52.806s.258,7.61,5.606,8.648-5.539,1.914-5.606,10.059,0,54.2,0,54.2" transform="translate(-455.688 -1633.271)" fill="none" stroke="#707070" stroke-width="1"/>
      <path id="Tracé_15" data-name="Tracé 15" d="M663.005,1827v52.806s.258,7.61,5.606,8.648-5.539,1.914-5.606,10.059,0,54.2,0,54.2" transform="translate(-454.489 -1787.445)" fill="none" stroke="#707070" stroke-width="1"/>
      <path id="Tracé_12" data-name="Tracé 12" d="M670.059,1827v52.806s-.258,7.61-5.606,8.648,5.539,1.914,5.606,10.059,0,54.2,0,54.2" transform="translate(-653.308 -1633.87)" fill="none" stroke="#707070" stroke-width="1"/>
      <path id="Tracé_14" data-name="Tracé 14" d="M670.059,1827v52.806s-.258,7.61-5.606,8.648,5.539,1.914,5.606,10.059,0,54.2,0,54.2" transform="translate(-462.801 -1633.271)" fill="none" stroke="#707070" stroke-width="1"/>
      <path id="Tracé_16" data-name="Tracé 16" d="M670.059,1827v52.806s-.258,7.61-5.606,8.648,5.539,1.914,5.606,10.059,0,54.2,0,54.2" transform="translate(-461.603 -1787.445)" fill="none" stroke="#707070" stroke-width="1"/>
    </g>
    <g id="Groupe_26" data-name="Groupe 26" transform="translate(899.118 574.831)">
      <path id="Tracé_2-2" data-name="Tracé 2" d="M757.711,2107.555s-.881-165.164-2.245-221.282-37.325-69.7-37.325-69.7H677.312l2.677,321.314H836.242l-4.093-321.314h8.029" transform="translate(-645.773 -1788.317)" fill="none" stroke="#707070" stroke-width="1"/>
      <line id="Ligne_3-2" data-name="Ligne 3" x2="210.961" transform="translate(6.593 319.439)" fill="none" stroke="#707070" stroke-width="1"/>
      <path id="Tracé_3-2" data-name="Tracé 3" d="M715.175,1817.321v205.934h-26.1v71.962h55.033v-45.438H717.6v17.87h12.722v14.13H703.433v-46.017h34.294s3.256-15.445,17.147-15.846,17.295,15.846,17.295,15.846h34.619v44.277H779.734v-12.39h15.848v-17.87H767.375v45.438H822.8v-75.3H793.884V1817.321" transform="translate(-643.437 -1788.169)" fill="none" stroke="#707070" stroke-width="1"/>
      <path id="Tracé_4-2" data-name="Tracé 4" d="M782.434,1816.574s-38.351,22.44-38.706,111.34" transform="translate(-632.58 -1788.317)" fill="none" stroke="#707070" stroke-width="1"/>
      <path id="Tracé_5-2" data-name="Tracé 5" d="M735.321,2031.71h22.4" transform="translate(-634.25 -1745.582)" fill="none" stroke="#707070" stroke-width="1"/>
      <path id="Tracé_6-2" data-name="Tracé 6" d="M812.684,1816.574H777.173l-1.17.687" transform="translate(-626.169 -1788.317)" fill="none" stroke="#707070" stroke-width="1"/>
      <path id="Tracé_7-2" data-name="Tracé 7" d="M679.895,2075.081h69.2l8.64-6.206,7.709,6.206H835.1" transform="translate(-645.26 -1738.199)" fill="none" stroke="#707070" stroke-width="1"/>
      <path id="Tracé_8-2" data-name="Tracé 8" d="M737.67,2074.053l8.849,6.977,8.1-6.977" transform="translate(-633.784 -1737.171)" fill="none" stroke="#707070" stroke-width="1"/>
      <g id="Ellipse_1-2" data-name="Ellipse 1" transform="translate(37.158 246.921)" fill="#fff" stroke="#707070" stroke-width="1">
        <circle cx="2.397" cy="2.397" r="2.397" stroke="none"/>
        <circle cx="2.397" cy="2.397" r="1.897" fill="none"/>
      </g>
      <g id="Ellipse_2-2" data-name="Ellipse 2" transform="translate(37.158 294.866)" fill="#fff" stroke="#707070" stroke-width="1">
        <circle cx="2.397" cy="2.397" r="2.397" stroke="none"/>
        <circle cx="2.397" cy="2.397" r="1.897" fill="none"/>
      </g>
      <g id="Ellipse_3-2" data-name="Ellipse 3" transform="translate(57.535 311.647)" fill="#fff" stroke="#707070" stroke-width="1">
        <circle cx="2.397" cy="2.397" r="2.397" stroke="none"/>
        <circle cx="2.397" cy="2.397" r="1.897" fill="none"/>
      </g>
      <g id="Ellipse_4-2" data-name="Ellipse 4" transform="translate(86.302 311.647)" fill="#fff" stroke="#707070" stroke-width="1">
        <circle cx="2.397" cy="2.397" r="2.397" stroke="none"/>
        <circle cx="2.397" cy="2.397" r="1.897" fill="none"/>
      </g>
      <g id="Ellipse_5-2" data-name="Ellipse 5" transform="translate(135.447 311.647)" fill="#fff" stroke="#707070" stroke-width="1">
        <circle cx="2.397" cy="2.397" r="2.397" stroke="none"/>
        <circle cx="2.397" cy="2.397" r="1.897" fill="none"/>
      </g>
      <g id="Ellipse_6-2" data-name="Ellipse 6" transform="translate(164.214 311.647)" fill="#fff" stroke="#707070" stroke-width="1">
        <circle cx="2.397" cy="2.397" r="2.397" stroke="none"/>
        <circle cx="2.397" cy="2.397" r="1.897" fill="none"/>
      </g>
      <g id="Ellipse_7-2" data-name="Ellipse 7" transform="translate(182.194 292.469)" fill="#fff" stroke="#707070" stroke-width="1">
        <circle cx="2.397" cy="2.397" r="2.397" stroke="none"/>
        <circle cx="2.397" cy="2.397" r="1.897" fill="none"/>
      </g>
      <g id="Ellipse_8-2" data-name="Ellipse 8" transform="translate(182.194 246.921)" fill="#fff" stroke="#707070" stroke-width="1">
        <circle cx="2.397" cy="2.397" r="2.397" stroke="none"/>
        <circle cx="2.397" cy="2.397" r="1.897" fill="none"/>
      </g>
      <g id="Ellipse_9-2" data-name="Ellipse 9" transform="translate(191.783 164.214)" fill="none" stroke="#707070" stroke-width="1">
        <circle cx="14.384" cy="14.384" r="14.384" stroke="none"/>
        <circle cx="14.384" cy="14.384" r="13.884" fill="none"/>
      </g>
      <g id="Ellipse_14-2" data-name="Ellipse 14" transform="translate(194.18 11.986)" fill="none" stroke="#707070" stroke-width="1">
        <circle cx="14.384" cy="14.384" r="14.384" stroke="none"/>
        <circle cx="14.384" cy="14.384" r="13.884" fill="none"/>
      </g>
      <g id="Ellipse_13-2" data-name="Ellipse 13" transform="translate(0 11.986)" fill="none" stroke="#707070" stroke-width="1">
        <circle cx="14.384" cy="14.384" r="14.384" stroke="none"/>
        <circle cx="14.384" cy="14.384" r="13.884" fill="none"/>
      </g>
      <g id="Ellipse_15-2" data-name="Ellipse 15" transform="translate(86.302 0)" fill="none" stroke="#707070" stroke-width="1">
        <circle cx="26.969" cy="26.969" r="26.969" stroke="none"/>
        <circle cx="26.969" cy="26.969" r="26.469" fill="none"/>
      </g>
      <g id="Ellipse_10-2" data-name="Ellipse 10" transform="translate(2.397 165.413)" fill="none" stroke="#707070" stroke-width="1">
        <circle cx="14.384" cy="14.384" r="14.384" stroke="none"/>
        <circle cx="14.384" cy="14.384" r="13.884" fill="none"/>
      </g>
      <g id="Ellipse_11-2" data-name="Ellipse 11" transform="translate(4.795 321.237)" fill="none" stroke="#707070" stroke-width="1">
        <circle cx="14.384" cy="14.384" r="14.384" stroke="none"/>
        <circle cx="14.384" cy="14.384" r="13.884" fill="none"/>
      </g>
      <g id="Ellipse_12-2" data-name="Ellipse 12" transform="translate(191.783 321.237)" fill="none" stroke="#707070" stroke-width="1">
        <circle cx="14.384" cy="14.384" r="14.384" stroke="none"/>
        <circle cx="14.384" cy="14.384" r="13.884" fill="none"/>
      </g>
      <path id="Tracé_9-2" data-name="Tracé 9" d="M663.005,1827v52.806s.258,7.61,5.606,8.648-5.539,1.914-5.606,10.059,0,54.2,0,54.2" transform="translate(-648.621 -1786.246)" fill="none" stroke="#707070" stroke-width="1"/>
      <path id="Tracé_10-2" data-name="Tracé 10" d="M670.059,1827v52.806s-.258,7.61-5.606,8.648,5.539,1.914,5.606,10.059,0,54.2,0,54.2" transform="translate(-655.735 -1786.246)" fill="none" stroke="#707070" stroke-width="1"/>
      <path id="Tracé_11-2" data-name="Tracé 11" d="M663.005,1827v52.806s.258,7.61,5.606,8.648-5.539,1.914-5.606,10.059,0,54.2,0,54.2" transform="translate(-646.194 -1633.87)" fill="none" stroke="#707070" stroke-width="1"/>
      <path id="Tracé_13-2" data-name="Tracé 13" d="M663.005,1827v52.806s.258,7.61,5.606,8.648-5.539,1.914-5.606,10.059,0,54.2,0,54.2" transform="translate(-455.688 -1633.271)" fill="none" stroke="#707070" stroke-width="1"/>
      <path id="Tracé_15-2" data-name="Tracé 15" d="M663.005,1827v52.806s.258,7.61,5.606,8.648-5.539,1.914-5.606,10.059,0,54.2,0,54.2" transform="translate(-454.489 -1787.445)" fill="none" stroke="#707070" stroke-width="1"/>
      <path id="Tracé_12-2" data-name="Tracé 12" d="M670.059,1827v52.806s-.258,7.61-5.606,8.648,5.539,1.914,5.606,10.059,0,54.2,0,54.2" transform="translate(-653.308 -1633.87)" fill="none" stroke="#707070" stroke-width="1"/>
      <path id="Tracé_14-2" data-name="Tracé 14" d="M670.059,1827v52.806s-.258,7.61-5.606,8.648,5.539,1.914,5.606,10.059,0,54.2,0,54.2" transform="translate(-462.801 -1633.271)" fill="none" stroke="#707070" stroke-width="1"/>
      <path id="Tracé_16-2" data-name="Tracé 16" d="M670.059,1827v52.806s-.258,7.61-5.606,8.648,5.539,1.914,5.606,10.059,0,54.2,0,54.2" transform="translate(-461.603 -1787.445)" fill="none" stroke="#707070" stroke-width="1"/>
    </g>
    <g id="Groupe_27" data-name="Groupe 27" transform="translate(879.939 627.572) rotate(180)">
      <path id="Tracé_2-3" data-name="Tracé 2" d="M80.4,290.981S79.518,125.817,78.154,69.7,40.829,0,40.829,0H0L2.677,321.315H158.93L154.837,0h8.029" transform="translate(31.539 28.257)" fill="none" stroke="#707070" stroke-width="1"/>
      <line id="Ligne_3-3" data-name="Ligne 3" x2="210.961" transform="translate(6.593 319.439)" fill="none" stroke="#707070" stroke-width="1"/>
      <path id="Tracé_3-3" data-name="Tracé 3" d="M26.1,0V205.934H0V277.9H55.033V232.458h-26.5v17.87H41.251v14.131H14.359V218.44H48.653S51.909,203,65.8,202.594,83.1,218.44,83.1,218.44h34.619v44.277H90.66v-12.39h15.848v-17.87H78.3V277.9h55.428v-75.3H104.81V0" transform="translate(45.638 29.152)" fill="none" stroke="#707070" stroke-width="1"/>
      <path id="Tracé_4-3" data-name="Tracé 4" d="M38.706,0S.354,22.441,0,111.341" transform="translate(111.148 28.257)" fill="none" stroke="#707070" stroke-width="1"/>
      <path id="Tracé_5-3" data-name="Tracé 5" d="M0,0H22.4" transform="translate(101.071 286.129)" fill="none" stroke="#707070" stroke-width="1"/>
      <path id="Tracé_6-3" data-name="Tracé 6" d="M36.681,0H1.17L0,.687" transform="translate(149.834 28.257)" fill="none" stroke="#707070" stroke-width="1"/>
      <path id="Tracé_7-3" data-name="Tracé 7" d="M0,6.206H69.2L77.837,0l7.709,6.206h69.663" transform="translate(34.635 330.677)" fill="none" stroke="#707070" stroke-width="1"/>
      <path id="Tracé_8-3" data-name="Tracé 8" d="M0,0,8.849,6.977,16.947,0" transform="translate(103.886 336.882)" fill="none" stroke="#707070" stroke-width="1"/>
      <g id="Ellipse_1-3" data-name="Ellipse 1" transform="translate(37.158 246.921)" fill="#fff" stroke="#707070" stroke-width="1">
        <circle cx="2.397" cy="2.397" r="2.397" stroke="none"/>
        <circle cx="2.397" cy="2.397" r="1.897" fill="none"/>
      </g>
      <g id="Ellipse_2-3" data-name="Ellipse 2" transform="translate(37.158 294.866)" fill="#fff" stroke="#707070" stroke-width="1">
        <circle cx="2.397" cy="2.397" r="2.397" stroke="none"/>
        <circle cx="2.397" cy="2.397" r="1.897" fill="none"/>
      </g>
      <g id="Ellipse_3-3" data-name="Ellipse 3" transform="translate(57.535 311.647)" fill="#fff" stroke="#707070" stroke-width="1">
        <circle cx="2.397" cy="2.397" r="2.397" stroke="none"/>
        <circle cx="2.397" cy="2.397" r="1.897" fill="none"/>
      </g>
      <g id="Ellipse_4-3" data-name="Ellipse 4" transform="translate(86.302 311.647)" fill="#fff" stroke="#707070" stroke-width="1">
        <circle cx="2.397" cy="2.397" r="2.397" stroke="none"/>
        <circle cx="2.397" cy="2.397" r="1.897" fill="none"/>
      </g>
      <g id="Ellipse_5-3" data-name="Ellipse 5" transform="translate(135.447 311.647)" fill="#fff" stroke="#707070" stroke-width="1">
        <circle cx="2.397" cy="2.397" r="2.397" stroke="none"/>
        <circle cx="2.397" cy="2.397" r="1.897" fill="none"/>
      </g>
      <g id="Ellipse_6-3" data-name="Ellipse 6" transform="translate(164.214 311.647)" fill="#fff" stroke="#707070" stroke-width="1">
        <circle cx="2.397" cy="2.397" r="2.397" stroke="none"/>
        <circle cx="2.397" cy="2.397" r="1.897" fill="none"/>
      </g>
      <g id="Ellipse_7-3" data-name="Ellipse 7" transform="translate(182.194 292.469)" fill="#fff" stroke="#707070" stroke-width="1">
        <circle cx="2.397" cy="2.397" r="2.397" stroke="none"/>
        <circle cx="2.397" cy="2.397" r="1.897" fill="none"/>
      </g>
      <g id="Ellipse_8-3" data-name="Ellipse 8" transform="translate(182.194 246.921)" fill="#fff" stroke="#707070" stroke-width="1">
        <circle cx="2.397" cy="2.397" r="2.397" stroke="none"/>
        <circle cx="2.397" cy="2.397" r="1.897" fill="none"/>
      </g>
      <g id="Ellipse_9-3" data-name="Ellipse 9" transform="translate(191.783 164.214)" fill="none" stroke="#707070" stroke-width="1">
        <circle cx="14.384" cy="14.384" r="14.384" stroke="none"/>
        <circle cx="14.384" cy="14.384" r="13.884" fill="none"/>
      </g>
      <g id="Ellipse_14-3" data-name="Ellipse 14" transform="translate(194.18 11.986)" fill="none" stroke="#707070" stroke-width="1">
        <circle cx="14.384" cy="14.384" r="14.384" stroke="none"/>
        <circle cx="14.384" cy="14.384" r="13.884" fill="none"/>
      </g>
      <g id="Ellipse_13-3" data-name="Ellipse 13" transform="translate(0 11.986)" fill="none" stroke="#707070" stroke-width="1">
        <circle cx="14.384" cy="14.384" r="14.384" stroke="none"/>
        <circle cx="14.384" cy="14.384" r="13.884" fill="none"/>
      </g>
      <g id="Ellipse_15-3" data-name="Ellipse 15" transform="translate(86.302 0)" fill="none" stroke="#707070" stroke-width="1">
        <circle cx="26.969" cy="26.969" r="26.969" stroke="none"/>
        <circle cx="26.969" cy="26.969" r="26.469" fill="none"/>
      </g>
      <g id="Ellipse_10-3" data-name="Ellipse 10" transform="translate(2.397 165.413)" fill="none" stroke="#707070" stroke-width="1">
        <circle cx="14.384" cy="14.384" r="14.384" stroke="none"/>
        <circle cx="14.384" cy="14.384" r="13.884" fill="none"/>
      </g>
      <g id="Ellipse_11-3" data-name="Ellipse 11" transform="translate(4.795 321.237)" fill="none" stroke="#707070" stroke-width="1">
        <circle cx="14.384" cy="14.384" r="14.384" stroke="none"/>
        <circle cx="14.384" cy="14.384" r="13.884" fill="none"/>
      </g>
      <g id="Ellipse_12-3" data-name="Ellipse 12" transform="translate(191.783 321.237)" fill="none" stroke="#707070" stroke-width="1">
        <circle cx="14.384" cy="14.384" r="14.384" stroke="none"/>
        <circle cx="14.384" cy="14.384" r="13.884" fill="none"/>
      </g>
      <path id="Tracé_9-3" data-name="Tracé 9" d="M.03,0V52.806s.258,7.61,5.606,8.648S.1,63.368.03,71.513s0,54.2,0,54.2" transform="translate(14.354 40.754)" fill="none" stroke="#707070" stroke-width="1"/>
      <path id="Tracé_10-3" data-name="Tracé 10" d="M7.084,0V52.806s-.258,7.61-5.606,8.648,5.539,1.914,5.606,10.059,0,54.2,0,54.2" transform="translate(7.24 40.754)" fill="none" stroke="#707070" stroke-width="1"/>
      <path id="Tracé_11-3" data-name="Tracé 11" d="M.03,0V52.806s.258,7.61,5.606,8.648S.1,63.368.03,71.513s0,54.2,0,54.2" transform="translate(16.781 193.129)" fill="none" stroke="#707070" stroke-width="1"/>
      <path id="Tracé_13-3" data-name="Tracé 13" d="M.03,0V52.806s.258,7.61,5.606,8.648S.1,63.368.03,71.513s0,54.2,0,54.2" transform="translate(207.287 193.729)" fill="none" stroke="#707070" stroke-width="1"/>
      <path id="Tracé_15-3" data-name="Tracé 15" d="M.03,0V52.806s.258,7.61,5.606,8.648S.1,63.368.03,71.513s0,54.2,0,54.2" transform="translate(208.486 39.555)" fill="none" stroke="#707070" stroke-width="1"/>
      <path id="Tracé_12-3" data-name="Tracé 12" d="M7.084,0V52.806s-.258,7.61-5.606,8.648,5.539,1.914,5.606,10.059,0,54.2,0,54.2" transform="translate(9.667 193.129)" fill="none" stroke="#707070" stroke-width="1"/>
      <path id="Tracé_14-3" data-name="Tracé 14" d="M7.084,0V52.806s-.258,7.61-5.606,8.648,5.539,1.914,5.606,10.059,0,54.2,0,54.2" transform="translate(200.174 193.729)" fill="none" stroke="#707070" stroke-width="1"/>
      <path id="Tracé_16-3" data-name="Tracé 16" d="M7.084,0V52.806s-.258,7.61-5.606,8.648,5.539,1.914,5.606,10.059,0,54.2,0,54.2" transform="translate(201.372 39.555)" fill="none" stroke="#707070" stroke-width="1"/>
    </g>
    <g id="Groupe_28" data-name="Groupe 28" transform="translate(1123.264 627.572) rotate(180)">
      <path id="Tracé_2-4" data-name="Tracé 2" d="M80.4,290.981S79.518,125.817,78.154,69.7,40.829,0,40.829,0H0L2.677,321.315H158.93L154.837,0h8.029" transform="translate(31.539 28.257)" fill="none" stroke="#707070" stroke-width="1"/>
      <line id="Ligne_3-4" data-name="Ligne 3" x2="210.961" transform="translate(6.593 319.439)" fill="none" stroke="#707070" stroke-width="1"/>
      <path id="Tracé_3-4" data-name="Tracé 3" d="M26.1,0V205.934H0V277.9H55.033V232.458h-26.5v17.87H41.251v14.131H14.359V218.44H48.653S51.909,203,65.8,202.594,83.1,218.44,83.1,218.44h34.619v44.277H90.66v-12.39h15.848v-17.87H78.3V277.9h55.428v-75.3H104.81V0" transform="translate(45.638 29.152)" fill="none" stroke="#707070" stroke-width="1"/>
      <path id="Tracé_4-4" data-name="Tracé 4" d="M38.706,0S.354,22.441,0,111.341" transform="translate(111.148 28.257)" fill="none" stroke="#707070" stroke-width="1"/>
      <path id="Tracé_5-4" data-name="Tracé 5" d="M0,0H22.4" transform="translate(101.071 286.129)" fill="none" stroke="#707070" stroke-width="1"/>
      <path id="Tracé_6-4" data-name="Tracé 6" d="M36.681,0H1.17L0,.687" transform="translate(149.834 28.257)" fill="none" stroke="#707070" stroke-width="1"/>
      <path id="Tracé_7-4" data-name="Tracé 7" d="M0,6.206H69.2L77.837,0l7.709,6.206h69.663" transform="translate(34.635 330.677)" fill="none" stroke="#707070" stroke-width="1"/>
      <path id="Tracé_8-4" data-name="Tracé 8" d="M0,0,8.849,6.977,16.947,0" transform="translate(103.886 336.882)" fill="none" stroke="#707070" stroke-width="1"/>
      <g id="Ellipse_1-4" data-name="Ellipse 1" transform="translate(37.158 246.921)" fill="#fff" stroke="#707070" stroke-width="1">
        <circle cx="2.397" cy="2.397" r="2.397" stroke="none"/>
        <circle cx="2.397" cy="2.397" r="1.897" fill="none"/>
      </g>
      <g id="Ellipse_2-4" data-name="Ellipse 2" transform="translate(37.158 294.866)" fill="#fff" stroke="#707070" stroke-width="1">
        <circle cx="2.397" cy="2.397" r="2.397" stroke="none"/>
        <circle cx="2.397" cy="2.397" r="1.897" fill="none"/>
      </g>
      <g id="Ellipse_3-4" data-name="Ellipse 3" transform="translate(57.535 311.647)" fill="#fff" stroke="#707070" stroke-width="1">
        <circle cx="2.397" cy="2.397" r="2.397" stroke="none"/>
        <circle cx="2.397" cy="2.397" r="1.897" fill="none"/>
      </g>
      <g id="Ellipse_4-4" data-name="Ellipse 4" transform="translate(86.302 311.647)" fill="#fff" stroke="#707070" stroke-width="1">
        <circle cx="2.397" cy="2.397" r="2.397" stroke="none"/>
        <circle cx="2.397" cy="2.397" r="1.897" fill="none"/>
      </g>
      <g id="Ellipse_5-4" data-name="Ellipse 5" transform="translate(135.447 311.647)" fill="#fff" stroke="#707070" stroke-width="1">
        <circle cx="2.397" cy="2.397" r="2.397" stroke="none"/>
        <circle cx="2.397" cy="2.397" r="1.897" fill="none"/>
      </g>
      <g id="Ellipse_6-4" data-name="Ellipse 6" transform="translate(164.214 311.647)" fill="#fff" stroke="#707070" stroke-width="1">
        <circle cx="2.397" cy="2.397" r="2.397" stroke="none"/>
        <circle cx="2.397" cy="2.397" r="1.897" fill="none"/>
      </g>
      <g id="Ellipse_7-4" data-name="Ellipse 7" transform="translate(182.194 292.469)" fill="#fff" stroke="#707070" stroke-width="1">
        <circle cx="2.397" cy="2.397" r="2.397" stroke="none"/>
        <circle cx="2.397" cy="2.397" r="1.897" fill="none"/>
      </g>
      <g id="Ellipse_8-4" data-name="Ellipse 8" transform="translate(182.194 246.921)" fill="#fff" stroke="#707070" stroke-width="1">
        <circle cx="2.397" cy="2.397" r="2.397" stroke="none"/>
        <circle cx="2.397" cy="2.397" r="1.897" fill="none"/>
      </g>
      <g id="Ellipse_9-4" data-name="Ellipse 9" transform="translate(191.783 164.214)" fill="none" stroke="#707070" stroke-width="1">
        <circle cx="14.384" cy="14.384" r="14.384" stroke="none"/>
        <circle cx="14.384" cy="14.384" r="13.884" fill="none"/>
      </g>
      <g id="Ellipse_14-4" data-name="Ellipse 14" transform="translate(194.18 11.986)" fill="none" stroke="#707070" stroke-width="1">
        <circle cx="14.384" cy="14.384" r="14.384" stroke="none"/>
        <circle cx="14.384" cy="14.384" r="13.884" fill="none"/>
      </g>
      <g id="Ellipse_13-4" data-name="Ellipse 13" transform="translate(0 11.986)" fill="none" stroke="#707070" stroke-width="1">
        <circle cx="14.384" cy="14.384" r="14.384" stroke="none"/>
        <circle cx="14.384" cy="14.384" r="13.884" fill="none"/>
      </g>
      <g id="Ellipse_15-4" data-name="Ellipse 15" transform="translate(86.302 0)" fill="none" stroke="#707070" stroke-width="1">
        <circle cx="26.969" cy="26.969" r="26.969" stroke="none"/>
        <circle cx="26.969" cy="26.969" r="26.469" fill="none"/>
      </g>
      <g id="Ellipse_10-4" data-name="Ellipse 10" transform="translate(2.397 165.413)" fill="none" stroke="#707070" stroke-width="1">
        <circle cx="14.384" cy="14.384" r="14.384" stroke="none"/>
        <circle cx="14.384" cy="14.384" r="13.884" fill="none"/>
      </g>
      <g id="Ellipse_11-4" data-name="Ellipse 11" transform="translate(4.795 321.237)" fill="none" stroke="#707070" stroke-width="1">
        <circle cx="14.384" cy="14.384" r="14.384" stroke="none"/>
        <circle cx="14.384" cy="14.384" r="13.884" fill="none"/>
      </g>
      <g id="Ellipse_12-4" data-name="Ellipse 12" transform="translate(191.783 321.237)" fill="none" stroke="#707070" stroke-width="1">
        <circle cx="14.384" cy="14.384" r="14.384" stroke="none"/>
        <circle cx="14.384" cy="14.384" r="13.884" fill="none"/>
      </g>
      <path id="Tracé_9-4" data-name="Tracé 9" d="M.03,0V52.806s.258,7.61,5.606,8.648S.1,63.368.03,71.513s0,54.2,0,54.2" transform="translate(14.354 40.754)" fill="none" stroke="#707070" stroke-width="1"/>
      <path id="Tracé_10-4" data-name="Tracé 10" d="M7.084,0V52.806s-.258,7.61-5.606,8.648,5.539,1.914,5.606,10.059,0,54.2,0,54.2" transform="translate(7.24 40.754)" fill="none" stroke="#707070" stroke-width="1"/>
      <path id="Tracé_11-4" data-name="Tracé 11" d="M.03,0V52.806s.258,7.61,5.606,8.648S.1,63.368.03,71.513s0,54.2,0,54.2" transform="translate(16.781 193.129)" fill="none" stroke="#707070" stroke-width="1"/>
      <path id="Tracé_13-4" data-name="Tracé 13" d="M.03,0V52.806s.258,7.61,5.606,8.648S.1,63.368.03,71.513s0,54.2,0,54.2" transform="translate(207.287 193.729)" fill="none" stroke="#707070" stroke-width="1"/>
      <path id="Tracé_15-4" data-name="Tracé 15" d="M.03,0V52.806s.258,7.61,5.606,8.648S.1,63.368.03,71.513s0,54.2,0,54.2" transform="translate(208.486 39.555)" fill="none" stroke="#707070" stroke-width="1"/>
      <path id="Tracé_12-4" data-name="Tracé 12" d="M7.084,0V52.806s-.258,7.61-5.606,8.648,5.539,1.914,5.606,10.059,0,54.2,0,54.2" transform="translate(9.667 193.129)" fill="none" stroke="#707070" stroke-width="1"/>
      <path id="Tracé_14-4" data-name="Tracé 14" d="M7.084,0V52.806s-.258,7.61-5.606,8.648,5.539,1.914,5.606,10.059,0,54.2,0,54.2" transform="translate(200.174 193.729)" fill="none" stroke="#707070" stroke-width="1"/>
      <path id="Tracé_16-4" data-name="Tracé 16" d="M7.084,0V52.806s-.258,7.61-5.606,8.648,5.539,1.914,5.606,10.059,0,54.2,0,54.2" transform="translate(201.372 39.555)" fill="none" stroke="#707070" stroke-width="1"/>
    </g>
    <path id="Tracé_17" data-name="Tracé 17" d="M620.838,1511.937l11.014,780.887h10.334v77.025H893.828v-167.17H663.384l-4.979-653.7H885.87v-37.042Z" transform="translate(0 -1274)" fill="#ded23c" stroke="#707070" stroke-width="1"/>
    <path id="Tracé_20" data-name="Tracé 20" d="M899.313,1511.937l-11.207,780.887H877.591v77.025H621.542v-167.17h234.48l5.066-653.7H617.3v-37.042Z" transform="translate(266.538 -1274)" fill="#ded23c" stroke="#707070" stroke-width="1"/>
    <path id="Tracé_18" data-name="Tracé 18" d="M632.951,1541.226c-.844,4.441-.53,24.537-.241,37.093.12,5.2.241,9.122.241,9.122s8.371,13.049,8.684,2.449,0-50.621,0-50.621S634.181,1534.753,632.951,1541.226Z" transform="translate(2.298 -1268.875)" fill="none" stroke="#707070" stroke-width="1"/>
    <path id="Tracé_19" data-name="Tracé 19" d="M632.951,1541.226c-.844,4.441-.53,24.537-.241,37.093.12,5.2.241,9.122.241,9.122s8.371,13.049,8.684,2.449,0-50.621,0-50.621S634.181,1534.753,632.951,1541.226Z" transform="translate(7.092 -667.156)" fill="none" stroke="#707070" stroke-width="1"/>
    <path id="Tracé_21" data-name="Tracé 21" d="M641.227,1541.227c.844,4.441.53,24.537.241,37.093-.12,5.2-.241,9.122-.241,9.122s-8.372,13.049-8.684,2.449,0-50.621,0-50.621S640,1534.753,641.227,1541.227Z" transform="translate(504.044 -1269.143)" fill="none" stroke="#707070" stroke-width="1"/>
    <path id="Tracé_22" data-name="Tracé 22" d="M641.227,1541.227c.844,4.441.53,24.537.241,37.093-.12,5.2-.241,9.122-.241,9.122s-8.372,13.049-8.684,2.449,0-50.621,0-50.621S640,1534.753,641.227,1541.227Z" transform="translate(499.249 -667.423)" fill="none" stroke="#707070" stroke-width="1"/>
  </g>
</svg>
